<svg width="100" height="100" viewBox="0 0 100 100" fill="none" xmlns="http://www.w3.org/2000/svg">
<path d="M16.6667 83.3333C14.375 83.3333 12.4139 82.518 10.7833 80.8875C9.15279 79.2569 8.33612 77.2944 8.33334 75V25C8.33334 22.7083 9.15001 20.7472 10.7833 19.1166C12.4167 17.4861 14.3778 16.6694 16.6667 16.6666H83.3334C85.625 16.6666 87.5875 17.4833 89.2208 19.1166C90.8542 20.75 91.6695 22.7111 91.6667 25V75C91.6667 77.2916 90.8514 79.2541 89.2208 80.8875C87.5903 82.5208 85.6278 83.3361 83.3334 83.3333H16.6667ZM16.6667 75H83.3334V25H16.6667V75ZM41.6667 58.3333H29.1667C27.9861 58.3333 26.9972 58.7333 26.2 59.5333C25.4028 60.3333 25.0028 61.3222 25 62.5C24.9972 63.6777 25.3972 64.668 26.2 65.4708C27.0028 66.2736 27.9917 66.6722 29.1667 66.6666H33.3333C33.3333 67.8472 33.7333 68.8375 34.5333 69.6375C35.3333 70.4375 36.3222 70.8361 37.5 70.8333C38.6778 70.8305 39.6681 70.4305 40.4708 69.6333C41.2736 68.8361 41.6722 67.8472 41.6667 66.6666H45.8333C47.0139 66.6666 48.0042 66.2666 48.8042 65.4666C49.6042 64.6666 50.0028 63.6777 50 62.5V50C50 48.8194 49.6 47.8305 48.8 47.0333C48 46.2361 47.0111 45.8361 45.8333 45.8333H33.3333V41.6666H45.8333C47.0139 41.6666 48.0042 41.2666 48.8042 40.4666C49.6042 39.6666 50.0028 38.6777 50 37.5C49.9972 36.3222 49.5972 35.3333 48.8 34.5333C48.0028 33.7333 47.0139 33.3333 45.8333 33.3333H41.6667C41.6667 32.1527 41.2667 31.1638 40.4667 30.3666C39.6667 29.5694 38.6778 29.1694 37.5 29.1666C36.3222 29.1638 35.3333 29.5638 34.5333 30.3666C33.7333 31.1694 33.3333 32.1583 33.3333 33.3333H29.1667C27.9861 33.3333 26.9972 33.7333 26.2 34.5333C25.4028 35.3333 25.0028 36.3222 25 37.5V50C25 51.1805 25.4 52.1708 26.2 52.9708C27 53.7708 27.9889 54.1694 29.1667 54.1666H41.6667V58.3333ZM67.3958 66.9791L73.2292 61.1458C73.5764 60.7986 73.6639 60.4166 73.4917 60C73.3195 59.5833 72.9889 59.375 72.5 59.375H60.8333C60.3472 59.375 60.0181 59.5833 59.8458 60C59.6736 60.4166 59.7597 60.7986 60.1042 61.1458L65.9375 66.9791C66.1458 67.1875 66.3889 67.2916 66.6667 67.2916C66.9445 67.2916 67.1875 67.1875 67.3958 66.9791ZM60.8333 41.6666H72.5C72.9861 41.6666 73.3167 41.4583 73.4917 41.0416C73.6667 40.625 73.5792 40.243 73.2292 39.8958L67.3958 34.0625C67.1875 33.8541 66.9445 33.75 66.6667 33.75C66.3889 33.75 66.1458 33.8541 65.9375 34.0625L60.1042 39.8958C59.757 40.243 59.6708 40.625 59.8458 41.0416C60.0208 41.4583 60.35 41.6666 60.8333 41.6666Z" fill="black"/>
</svg>
